<?xml version="1.0" encoding="UTF-8" standalone="no"?>
<!-- Created with Inkscape (http://www.inkscape.org/) -->

<svg
   xmlns:dc="http://purl.org/dc/elements/1.1/"
   xmlns:cc="http://creativecommons.org/ns#"
   xmlns:rdf="http://www.w3.org/1999/02/22-rdf-syntax-ns#"
   xmlns:svg="http://www.w3.org/2000/svg"
   xmlns="http://www.w3.org/2000/svg"
   xmlns:sodipodi="http://sodipodi.sourceforge.net/DTD/sodipodi-0.dtd"
   xmlns:inkscape="http://www.inkscape.org/namespaces/inkscape"
   id="svg3039"
   version="1.1"
   inkscape:version="0.48.3.1 r9886"
   width="241"
   height="380"
   sodipodi:docname="logo.svg"
   inkscape:export-filename="/home/klaxa/Images/Ponychan/Lyude/lyude.net logo late draft #5.png"
   inkscape:export-xdpi="300"
   inkscape:export-ydpi="300">
  <metadata
     id="metadata3045">
    <rdf:RDF>
      <cc:Work
         rdf:about="">
        <dc:format>image/svg+xml</dc:format>
        <dc:type
           rdf:resource="http://purl.org/dc/dcmitype/StillImage" />
        <dc:title />
      </cc:Work>
    </rdf:RDF>
  </metadata>
  <defs
     id="defs3043" />
  <sodipodi:namedview
     pagecolor="#ffffff"
     bordercolor="#666666"
     borderopacity="1"
     objecttolerance="10"
     gridtolerance="10"
     guidetolerance="10"
     inkscape:pageopacity="0"
     inkscape:pageshadow="2"
     inkscape:window-width="1920"
     inkscape:window-height="1022"
     id="namedview3041"
     showgrid="false"
     inkscape:zoom="5.6568544"
     inkscape:cx="151.69153"
     inkscape:cy="131.02956"
     inkscape:window-x="0"
     inkscape:window-y="0"
     inkscape:window-maximized="1"
     inkscape:current-layer="layer1"
     showguides="true"
     inkscape:guide-bbox="true">
    <inkscape:grid
       type="xygrid"
       id="grid3013" />
  </sodipodi:namedview>
  <g
     inkscape:groupmode="layer"
     id="layer1"
     inkscape:label="Logo">
    <path
       style="fill:#ffc9e7;fill-opacity:1;stroke:#ffffff;stroke-opacity:1;stroke-width:6"
       d="M 40.573431,79.021232 C 49.836856,58.042508 57.354966,62.086404 67.664003,71.430424 L 40.049141,24.129372 z"
       id="path4119"
       inkscape:connector-curvature="0"
       sodipodi:nodetypes="cccc" />
    <path
       style="fill:#ffc9e7;fill-opacity:1;stroke:#ffffff;stroke-opacity:1;stroke-width:6"
       d="M 164.41928,64.19922 216.02604,32.235678 185.17578,84.015627 C 189.26605,68.973964 183.02345,62.351994 164.41928,64.19922 z"
       id="path4121"
       inkscape:connector-curvature="0"
       sodipodi:nodetypes="cccc" />
    <path
       style="font-size:medium;font-style:normal;font-variant:normal;font-weight:normal;font-stretch:normal;text-indent:0;text-align:start;text-decoration:none;line-height:normal;letter-spacing:normal;word-spacing:normal;text-transform:none;direction:ltr;block-progression:tb;writing-mode:lr-tb;text-anchor:start;baseline-shift:baseline;color:#000000;fill:#000000;fill-opacity:1;stroke:none;stroke-width:4;marker:none;visibility:visible;display:inline;overflow:visible;enable-background:accumulate;font-family:Sans;-inkscape-font-specification:Sans"
       d="m 36,16.65625 1.59375,164.71875 0.03125,3.96875 3.15625,-2.40625 29.3125,-22.21875 -2.4375,-3.1875 L 41.5625,177.34375 40.0625,24.125 72.281986,79.358404 75.882132,77.586093 39.71875,15.625 z m 185,7.78125 -72.76899,45.091638 2.92987,2.906044 64.96412,-40.278932 -91.1875,152.875 3.4375,2.03125 95.40625,-159.90625 z"
       id="path3049"
       inkscape:connector-curvature="0"
       sodipodi:nodetypes="cccccccccccccccccccc" />
    <path
       style="fill:none;stroke:#000000;stroke-width:4;stroke-linecap:butt;stroke-linejoin:miter;stroke-opacity:1"
       d="m 52.645833,101.33333 c 0,0 6.504249,48.35268 23.75,38.39584 18.814677,-10.86266 7.125,-50.270837 7.125,-50.270837 0,0 34.437497,108.854167 -12.666666,100.145837"
       id="path3053"
       inkscape:connector-curvature="0"
       sodipodi:nodetypes="cscc" />
    <path
       style="fill:none;stroke:#000000;stroke-width:4;stroke-linecap:butt;stroke-linejoin:miter;stroke-opacity:1"
       d="m 104.10417,85.104166 c 0,0 -8.545338,57.057494 11.47916,59.375004 20.82728,2.41042 25.72917,-57.395837 25.72917,-57.395837"
       id="path3055"
       inkscape:connector-curvature="0"
       sodipodi:nodetypes="csc" />
    <path
       style="fill:none;stroke:#000000;stroke-width:4;stroke-linecap:butt;stroke-linejoin:miter;stroke-opacity:1"
       d="m 134.58333,161.5 c 0,0 -27.09769,-23.14443 -34.04166,2.77083 -7.069836,26.38499 23.35416,16.625 23.35416,16.625"
       id="path3057"
       inkscape:connector-curvature="0"
       sodipodi:nodetypes="csc" />
    <path
       style="fill:none;stroke:#000000;stroke-width:4;stroke-linecap:butt;stroke-linejoin:miter;stroke-opacity:1"
       d="m 164.27083,146.0625 14.25,8.3125 c 0,0 16.40299,-34.74975 6.33334,-38 -14.28833,-4.61194 -39.36212,45.00382 -30.08334,61.75 4.77236,8.61306 13.45833,1.58333 13.45833,1.58333"
       id="path3059"
       inkscape:connector-curvature="0"
       sodipodi:nodetypes="ccssc" />
    <path
       style="fill:none;stroke:#000000;stroke-width:4;stroke-linecap:butt;stroke-linejoin:miter;stroke-opacity:1"
       d="m 52.25,180.5 c 1.854709,-1.53537 5.560848,-3.018 7.125,-1.1875 1.897383,2.22048 -0.449721,6.53965 -2.770833,8.3125 -1.890339,1.44383 -5.71087,2.30849 -7.125,0.39583 C 47.890841,185.87256 50.191999,182.20366 52.25,180.5 z"
       id="path3061"
       inkscape:connector-curvature="0"
       sodipodi:nodetypes="sssss" />
    <path
       style="fill:none;stroke:#000000;stroke-width:2;stroke-linecap:butt;stroke-linejoin:miter;stroke-opacity:1"
       d="m 60.5625,194.35417 -4.354167,26.125 c 2.375,-13.45833 8.583807,-25.04495 18.208333,-23.35417 9.266941,1.62797 4.354167,28.10416 4.354167,28.10416"
       id="path3063"
       inkscape:connector-curvature="0"
       sodipodi:nodetypes="ccsc" />
    <path
       style="fill:none;stroke:#000000;stroke-width:2;stroke-linecap:butt;stroke-linejoin:miter;stroke-opacity:1"
       d="m 92.229167,210.1875 15.437503,-1.97917 c 0,0 -1.95345,-22.45099 -9.895837,-21.77083 -8.354617,0.71546 -10.345196,34.8913 1.979167,39.1875 2.48246,0.86537 7.52083,-2.375 7.52083,-2.375"
       id="path3065"
       inkscape:connector-curvature="0"
       sodipodi:nodetypes="ccssc" />
    <path
       style="fill:none;stroke:#000000;stroke-width:2;stroke-linecap:butt;stroke-linejoin:miter;stroke-opacity:1"
       d="m 116.375,192.77083 c 1.97917,14.64583 4.9742,22.82342 14.64583,25.72917 4.67503,1.40457 7.71875,-5.14583 7.71875,-5.14583"
       id="path3067"
       inkscape:connector-curvature="0"
       sodipodi:nodetypes="csc" />
    <path
       style="fill:none;stroke:#000000;stroke-width:2;stroke-linecap:butt;stroke-linejoin:miter;stroke-opacity:1"
       d="m 112.91146,209.59375 19.29687,-16.72396"
       id="path3069"
       inkscape:connector-curvature="0" />
    <path
       style="fill:#000000;fill-opacity:1;stroke:none;display:inline"
       d="m 38.494792,91.536459 c -3.183786,-3.763697 -6.783258,-6.577256 -8.213542,-14.348958 2.016243,2.04346 3.748275,4.858353 6.630208,4.552083 -1.610938,-5.740659 -2.969087,-11.531877 -5.838541,-17.020833 1.817076,1.537889 3.653317,2.769147 5.34375,6.333333 -1.681063,-6.378271 -4.105596,-12.178286 -3.5625,-20.286458 0.900968,0.824653 0.293036,1.649305 3.5625,2.473958 -2.066465,-8.902376 -4.058384,-17.832706 -4.057292,-27.510416 1.036107,1.844744 1.964289,2.394385 2.869792,2.671875 0.69056,-7.157986 -2.820312,-12.435764 -1.484375,-21.4739587 0.890625,3.3151037 3.5625,5.0468747 3.5625,5.0468747 3.515966,-2.2499365 2.634605,-4.2999945 3.5625,-6.4322914 4.172609,7.2574414 4.037543,10.8453814 4.848958,15.2395834 3.137666,-2.219964 2.5374,-5.33546 4.947917,-10.390625 1.287054,8.385092 4.702641,19.096677 3.414062,24.789062 4.191085,-4.043809 3.167389,-7.901377 4.007813,-11.82552 2.24071,6.449608 3.167473,13.903999 3.166666,22.067708 0.512538,-3.067748 1.205881,-5.665405 2.375,-7.026042 0.456308,12.701484 3.3644,14.778571 5.046875,22.166667 2.887605,-6.880442 1.258554,-9.695893 1.78125,-14.447917 3.171163,8.896027 4.277852,18.355094 6.135417,27.609375 1.730147,-3.948835 4.632018,-4.549889 7.223958,-6.036458 -1.258857,2.851615 -1.378901,5.361587 0,7.421875 4.705114,-3.74022 4.243998,-6.806585 6.234375,-10.192709 2.010945,3.858878 1.048028,6.493224 0.989583,9.5 6.601022,-3.231481 7.619792,-7.322917 7.619792,-7.322917 0.88611,2.026389 0.795523,3.564429 1.1875,5.343751 0.907112,-6.693427 6.135412,-10.588542 6.135412,-10.588542 -1.19411,10.618263 1.13802,9.5 4.15625,9.598958 0.01,-5.316425 2.44,-5.994344 3.85938,-8.609375 -0.81895,4.769319 0.33251,6.952465 1.58333,9.005209 7.12956,-10.068296 6.53125,-15.4375 6.53125,-15.4375 1.08977,2.309231 1.12386,4.442518 1.48438,6.630208 0.9247,-2.869321 2.67271,-2.628397 1.38541,-13.854166 3.05524,3.874528 3.12388,8.744586 3.95834,13.359374 0.67685,-3.881579 1.73146,-7.234288 3.06771,-10.192708 -0.0607,5.880115 1.95414,8.646906 3.66145,11.875 -0.66757,-2.773284 -0.25602,-5.209347 1.1875,-7.322916 0.3704,9.772918 2.37489,8.883832 4.89844,14.893229 3.21614,-1.929688 3.41406,-7.76823 3.41406,-7.76823 1.29255,0.0807 1.98191,1.970964 2.77084,3.5625 -0.60423,-4.133744 1.10766,-5.951361 2.07812,-8.510416 0.79656,2.301697 1.54289,4.282888 3.36459,5.046875 5.41755,-5.081427 7.59691,-9.515216 9.79687,-13.953125 0.6479,-0.215966 3.12034,3.816123 2.07813,6.432292 3.14686,-5.379391 6.21103,-10.852498 11.28125,-14.052084 -1.45745,3.223767 -2.98355,6.482897 -0.19792,7.520834 3.19965,-7.531811 6.39931,-8.742247 9.59896,-12.963542 -0.26782,2.564436 -1.5281,6.319831 0,6.729167 4.50019,-2.287743 5.97574,-5.759039 7.52083,-9.203125 1.33786,0.597757 1.27233,2.287032 1.48438,3.760416 1.20381,-4.708859 3.74924,-8.746908 5.9375,-12.963541 -0.31406,3.393044 -0.54766,6.701968 1.97916,7.125 5.73004,-8.180146 8.47913,-10.508797 10.6875,-11.776042 -1.73708,3.452359 -3.08985,6.520405 -1.1875,6.333333 2.15757,-6.974322 5.96364,-7.171484 9.20313,-9.697916 -0.30448,1.354185 -2.22055,3.080276 -0.89063,4.057291 4.7033,0.380644 9.40104,-6.135416 9.40104,-6.135416 0.12095,3.141597 -2.93304,6.664188 -6.03645,10.192708 2.00361,-0.106332 4.44456,-1.524672 6.82812,-2.770833 -2.60307,5.47413 -6.1473,7.811076 -9.5,10.786458 1.45139,2.158368 4.35417,0.296875 4.35417,0.296875 -2.94807,3.663526 -6.61817,7.254849 -10.88542,10.786458 2.59568,-0.990468 4.6539,-2.190903 7.81771,-0.791666 -5.55512,1.572982 -10.07389,6.847222 -14.74479,11.578125 1.93625,-0.844152 3.8638,-1.618783 5.54166,-0.395834 -4.90859,2.058184 -7.03146,5.708209 -10.29166,8.708333 1.44413,1.528902 2.56445,0.629234 3.76041,0.296875 -1.12607,3.754734 -5.63072,6.007875 -8.90625,8.807292 1.95528,0.798469 3.75105,0.320901 5.44271,-0.989583 -2.27279,3.800798 -6.8984,6.229115 -10.58854,9.203125 2.18095,-0.687034 4.32504,-1.742714 6.63021,-1.1875 -4.53145,1.75307 -9.9244,6.693481 -14.20052,9.846353 l 33.79427,-60.117186 -64.92164,40.283074 -14.9518,4.267213 -5.38474,-6.751117 -8.8512,1.883121 -11.18229,4.651042 -6.72916,-0.791667 -10.984379,2.671875 -7.026041,0.197917 -1.484375,-1.583334 -6.927084,3.661459 -6.729166,0.197916 -34.289062,-57.692708 z"
       id="path3203"
       inkscape:connector-curvature="0"
       sodipodi:nodetypes="ccccccccccccccccccccccccccccccccccccccccccccccccccccccccccccccccccccccccccccccccccccccc" />
    <path
       style="fill:#000000;fill-opacity:1;stroke:none"
       d="m 71.794271,77.484375 -0.123698,3.315105 c 2.649478,0.868141 2.9252,-0.549557 3.933594,-1.261719 0.266329,1.003852 0.112837,2.187628 -0.544271,3.587239 3.15302,-0.742232 3.791558,-2.620036 5.022135,-4.230468 -0.20534,1.215538 -1.037438,2.610151 0.02474,3.463541 3.928905,-5.931337 4.904319,-4.656158 7.322916,-6.902343 -0.09396,3.405258 1.682292,3.265625 1.682292,3.265625 1.198273,-1.575823 2.562464,-1.57543 3.884115,-1.979167 2.809653,0.527934 3.618016,1.94533 5.368489,2.94401 1.872597,-0.461528 3.000687,-1.933469 3.958337,-3.636718 0.27582,1.984301 1.9769,2.365177 3.80989,2.597656 -0.24094,-2.363668 0.94296,-3.682454 2.67188,-4.601563 3.56108,1.80731 2.74609,4.972657 2.74609,4.972657 1.54648,-2.281203 3.38073,-4.1787 5.91276,-5.145834 0.58741,1.232882 1.38645,2.177181 2.69662,2.424479 0.7364,-2.002985 2.19454,-3.735313 3.98307,-5.34375 -0.12244,1.741133 0.29896,3.074392 2.27604,3.240886 0.74111,-1.926252 1.093,-4.053395 3.78516,-4.972656 2.47396,2.276041 2.96875,4.420138 1.48437,6.432291 2.32864,-0.01016 3.39102,-1.387875 4.08203,-3.166666 0.012,2.206916 -0.22042,4.557558 1.95443,5.492187 0.41944,-1.363458 1.52339,-2.323232 4.5026,-2.177083 -0.11541,2.160552 1.63237,2.457911 3.24089,2.894531 -0.46979,-2.327088 3.42159,-5.566406 3.63672,-5.566406 1.43297,-0.204728 2.63309,0.01258 3.01823,1.707031 1.8878,-2.051969 2.69684,-4.167394 3.48828,-6.283854 l -15.66016,4.378906 -6.55599,-9.029948 -7.81771,0 -9.82161,8.733073 -11.6276,-0.197917 -6.333337,0.915365 -9.153646,1.731771 0.470052,-4.032552 -6.927083,6.209635 -3.513021,-2.622396 z"
       id="path3211"
       inkscape:connector-curvature="0"
       sodipodi:nodetypes="cccccccccccccccccccccccccccccccccccccc" />
    <path
       style="font-size:medium;font-style:normal;font-variant:normal;font-weight:normal;font-stretch:normal;text-indent:0;text-align:start;text-decoration:none;line-height:normal;letter-spacing:normal;word-spacing:normal;text-transform:none;direction:ltr;block-progression:tb;writing-mode:lr-tb;text-anchor:start;baseline-shift:baseline;color:#000000;fill:#000000;fill-opacity:1;stroke:none;stroke-width:3;marker:none;visibility:visible;display:inline;overflow:visible;enable-background:accumulate;font-family:Sans;-inkscape-font-specification:Sans"
       d="m 22.535676,113.32652 c 2.410814,5.749 5.082365,8.00366 6.339324,11.64223 0.169798,0.83378 1.154022,1.39611 1.958526,1.11901 C 31.63803,125.81065 32.067181,124.76148 31.6875,124 30.140444,119.52168 27.591095,117.34859 25.340149,112.13092 24.573118,110.35294 21.171875,104.5 21.171875,104.5 c 0,0 0.540554,6.86334 1.363801,8.82652 z"
       id="path3006"
       inkscape:connector-curvature="0"
       sodipodi:nodetypes="scscscs" />
    <path
       style="font-size:medium;font-style:normal;font-variant:normal;font-weight:normal;font-stretch:normal;text-indent:0;text-align:start;text-decoration:none;line-height:normal;letter-spacing:normal;word-spacing:normal;text-transform:none;direction:ltr;block-progression:tb;writing-mode:lr-tb;text-anchor:start;baseline-shift:baseline;color:#000000;fill:#000000;fill-opacity:1;stroke:none;stroke-width:3;marker:none;visibility:visible;display:inline;overflow:visible;enable-background:accumulate;font-family:Sans;-inkscape-font-specification:Sans"
       d="m 20.294432,135.22953 c 1.563431,1.93106 3.00571,3.53121 4.299318,4.80172 2.159572,2.12101 3.662696,3.38952 5.375,3.75 0.769036,0.16362 1.617625,-0.38721 1.781249,-1.15625 0.163625,-0.76904 -0.387213,-1.61763 -1.156249,-1.78125 -0.167904,-0.0353 -1.878322,-1.00773 -3.875,-2.96875 -1.178774,-1.15772 -2.534451,-2.64421 -4.019402,-4.46066 -1.030349,-1.26037 -4.876431,-3.77892 -4.876431,-3.77892 0,0 0.262204,2.8653 2.471515,5.59411 z"
       id="path3008"
       inkscape:connector-curvature="0"
       sodipodi:nodetypes="sscscsscs" />
    <path
       style="font-size:medium;font-style:normal;font-variant:normal;font-weight:normal;font-stretch:normal;text-indent:0;text-align:start;text-decoration:none;line-height:normal;letter-spacing:normal;word-spacing:normal;text-transform:none;direction:ltr;block-progression:tb;writing-mode:lr-tb;text-anchor:start;baseline-shift:baseline;color:#000000;fill:#000000;fill-opacity:1;stroke:none;stroke-width:3;marker:none;visibility:visible;display:inline;overflow:visible;enable-background:accumulate;font-family:Sans;-inkscape-font-specification:Sans"
       d="m 16.883673,157.46928 c 1.869194,0.77469 3.78045,1.27303 5.553827,1.59322 4.670643,0.84331 8.5625,0.46875 8.5625,0.46875 0.785398,-0.0654 1.440449,-0.8396 1.374999,-1.625 -0.06545,-0.7854 -0.839601,-1.44045 -1.624999,-1.375 0,0 -3.545643,0.32726 -7.78125,-0.4375 -1.631548,-0.29458 -3.339114,-0.747 -4.973021,-1.42596 -5.67461,-2.35802 -8.0069402,-4.90387 -8.0069402,-4.90387 0,0 0.4280322,5.02516 6.8948842,7.70536 z"
       id="path3010"
       inkscape:connector-curvature="0"
       sodipodi:nodetypes="sscscsscs" />
    <path
       style="font-size:medium;font-style:normal;font-variant:normal;font-weight:normal;font-stretch:normal;text-indent:0;text-align:start;text-decoration:none;line-height:normal;letter-spacing:normal;word-spacing:normal;text-transform:none;direction:ltr;block-progression:tb;writing-mode:lr-tb;text-anchor:start;baseline-shift:baseline;color:#000000;fill:#000000;fill-opacity:1;stroke:none;stroke-width:3;marker:none;visibility:visible;display:inline;overflow:visible;enable-background:accumulate;font-family:Sans;-inkscape-font-specification:Sans"
       d="m 27.75,172.875 c -8.650147,-0.30001 -13.966745,0.29587 -17.1875,1 -1.6103775,0.35207 -3.6143112,2.7563 -3.6143112,2.7563 0,0 2.8256001,0.46585 4.2705612,0.14995 2.889922,-0.6318 7.967855,-1.19999 16.4375,-0.90625 0.785398,0.0245 1.522331,-0.66773 1.546874,-1.45313 0.02454,-0.78539 -0.667726,-1.52233 -1.453124,-1.54687 z"
       id="path3012"
       inkscape:connector-curvature="0"
       sodipodi:nodetypes="cscscsc" />
    <path
       style="font-size:medium;font-style:normal;font-variant:normal;font-weight:normal;font-stretch:normal;text-indent:0;text-align:start;text-decoration:none;line-height:normal;letter-spacing:normal;word-spacing:normal;text-transform:none;direction:ltr;block-progression:tb;writing-mode:lr-tb;text-anchor:start;baseline-shift:baseline;color:#000000;fill:#000000;fill-opacity:1;stroke:none;stroke-width:3;marker:none;visibility:visible;display:inline;overflow:visible;enable-background:accumulate;font-family:Sans;-inkscape-font-specification:Sans"
       d="m 29.90625,188.09375 c -0.234353,0.0301 -0.461273,0.11654 -0.65625,0.25 -6.717369,4.44457 -10.144723,8.30554 -11.90625,11.15625 -1.6544,2.67734 -1.120263,7.81294 -1.120263,7.81294 0,0 2.208115,-3.83269 3.682763,-6.21914 1.479362,-2.39408 4.555911,-5.98624 11,-10.25 0.566965,-0.36462 0.828751,-1.14091 0.598385,-1.77441 -0.230366,-0.63351 -0.929639,-1.06032 -1.598385,-0.97559 z"
       id="path3014"
       inkscape:connector-curvature="0"
       sodipodi:nodetypes="ccscscscc" />
    <path
       style="font-size:medium;font-style:normal;font-variant:normal;font-weight:normal;font-stretch:normal;text-indent:0;text-align:start;text-decoration:none;line-height:normal;letter-spacing:normal;word-spacing:normal;text-transform:none;direction:ltr;block-progression:tb;writing-mode:lr-tb;text-anchor:start;baseline-shift:baseline;color:#000000;fill:#000000;fill-opacity:1;stroke:none;stroke-width:3;marker:none;visibility:visible;display:inline;overflow:visible;enable-background:accumulate;font-family:Sans;-inkscape-font-specification:Sans"
       d="m 43.34375,196.1875 c -0.479519,0.007 -0.949021,0.25972 -1.21875,0.65625 -4.218698,5.94945 -3.026042,14.23437 -3.026042,14.23437 0,0 1.963492,-7.5484 5.463542,-12.48437 0.675178,-0.89061 -0.101274,-2.42361 -1.21875,-2.40625 z"
       id="path3016"
       inkscape:connector-curvature="0"
       sodipodi:nodetypes="ccccc" />
    <path
       style="font-size:medium;font-style:normal;font-variant:normal;font-weight:normal;font-stretch:normal;text-indent:0;text-align:start;text-decoration:none;line-height:normal;letter-spacing:normal;word-spacing:normal;text-transform:none;direction:ltr;block-progression:tb;writing-mode:lr-tb;text-anchor:start;baseline-shift:baseline;color:#000000;fill:#000000;fill-opacity:1;stroke:none;stroke-width:3;marker:none;visibility:visible;display:inline;overflow:visible;enable-background:accumulate;font-family:Sans;-inkscape-font-specification:Sans"
       d="m 182.25,187.6875 c -0.66842,0.005 -1.30053,0.51147 -1.45084,1.16279 -0.1503,0.65131 0.19589,1.38369 0.79459,1.68096 12.02435,6.24888 17.91146,17.88021 17.91146,17.88021 0,0 -3.42539,-13.72284 -16.53646,-20.53646 -0.21893,-0.12113 -0.46855,-0.18625 -0.71875,-0.1875 z"
       id="path3018"
       inkscape:connector-curvature="0"
       sodipodi:nodetypes="cscccc" />
    <path
       style="font-size:medium;font-style:normal;font-variant:normal;font-weight:normal;font-stretch:normal;text-indent:0;text-align:start;text-decoration:none;line-height:normal;letter-spacing:normal;word-spacing:normal;text-transform:none;direction:ltr;block-progression:tb;writing-mode:lr-tb;text-anchor:start;baseline-shift:baseline;color:#000000;fill:#000000;fill-opacity:1;stroke:none;stroke-width:3;marker:none;visibility:visible;display:inline;overflow:visible;enable-background:accumulate;font-family:Sans;-inkscape-font-specification:Sans"
       d="m 196.34375,171.95052 c -3.64761,0.71992 -6.03986,0.92448 -15.0625,0.92448 -0.79247,-0.0112 -1.52136,0.70745 -1.52136,1.5 0,0.79255 0.72889,1.51121 1.52136,1.5 9.18569,0 11.75178,-0.22253 15.625,-0.98698 3.87322,-0.76445 8.53125,-3.48177 8.53125,-3.48177 0,0 -5.44614,-0.17565 -9.09375,0.54427 z"
       id="path3020"
       inkscape:connector-curvature="0"
       sodipodi:nodetypes="scscscs" />
    <path
       style="font-size:medium;font-style:normal;font-variant:normal;font-weight:normal;font-stretch:normal;text-indent:0;text-align:start;text-decoration:none;line-height:normal;letter-spacing:normal;word-spacing:normal;text-transform:none;direction:ltr;block-progression:tb;writing-mode:lr-tb;text-anchor:start;baseline-shift:baseline;color:#000000;fill:#000000;fill-opacity:1;stroke:none;stroke-width:3;marker:none;visibility:visible;display:inline;overflow:visible;enable-background:accumulate;font-family:Sans;-inkscape-font-specification:Sans"
       d="m 188.5625,157.0625 c -3.24966,1.66094 -7.16662,3.21952 -11.75,5.6875 -0.69558,0.37624 -0.98605,1.35153 -0.60966,2.04703 0.37639,0.6955 1.35174,0.98576 2.04716,0.60922 4.42183,-2.38098 8.25747,-3.93437 11.6875,-5.6875 3.43003,-1.75313 6.14844,-3.91406 8.67187,-9.25781 -4.90023,4.28769 -7.01777,5.05335 -10.04687,6.60156 z"
       id="path3022"
       inkscape:connector-curvature="0"
       sodipodi:nodetypes="scscscs" />
    <path
       style="font-size:medium;font-style:normal;font-variant:normal;font-weight:normal;font-stretch:normal;text-indent:0;text-align:start;text-decoration:none;line-height:normal;letter-spacing:normal;word-spacing:normal;text-transform:none;direction:ltr;block-progression:tb;writing-mode:lr-tb;text-anchor:start;baseline-shift:baseline;color:#000000;fill:#000000;fill-opacity:1;stroke:none;stroke-width:3;marker:none;visibility:visible;display:inline;overflow:visible;enable-background:accumulate;font-family:Sans;-inkscape-font-specification:Sans"
       d="m 201.59375,129.21875 c -0.83439,2.90273 -1.82939,5.21072 -5.84375,7.65625 -0.67086,0.40906 -0.90906,1.39164 -0.5,2.0625 0.40906,0.67086 1.39164,0.90906 2.0625,0.5 4.59501,-2.79926 6.26538,-6.16705 7.1875,-9.375 0.92212,-3.20795 0.69531,-6.1224 2.42708,-10.72396 -2.91927,2.12761 -4.49894,6.97748 -5.33333,9.88021 z"
       id="path3024"
       inkscape:connector-curvature="0"
       sodipodi:nodetypes="scscscs" />
    <path
       style="font-size:medium;font-style:normal;font-variant:normal;font-weight:normal;font-stretch:normal;text-indent:0;text-align:start;text-decoration:none;line-height:normal;letter-spacing:normal;word-spacing:normal;text-transform:none;direction:ltr;block-progression:tb;writing-mode:lr-tb;text-anchor:start;baseline-shift:baseline;color:#000000;fill:#000000;fill-opacity:1;stroke:none;stroke-width:3;marker:none;visibility:visible;display:inline;overflow:visible;enable-background:accumulate;font-family:Sans;-inkscape-font-specification:Sans"
       d="m 192.9375,119.28125 c -0.55575,0.62977 -0.42612,1.73458 0.26032,2.21861 0.68643,0.48402 1.77061,0.2351 2.17718,-0.49986 4.60259,-6.62773 10.66145,-8.28646 10.66145,-8.28646 0,0 -7.8057,-1.05456 -13.09895,6.56771 z"
       id="path3026"
       inkscape:connector-curvature="0"
       sodipodi:nodetypes="csccc" />
    <path
       style="font-size:medium;font-style:normal;font-variant:normal;font-weight:normal;font-stretch:normal;text-indent:0;text-align:start;text-decoration:none;line-height:normal;letter-spacing:normal;word-spacing:normal;text-transform:none;direction:ltr;block-progression:tb;writing-mode:lr-tb;text-anchor:start;baseline-shift:baseline;color:#000000;fill:#000000;fill-opacity:1;stroke:none;stroke-width:3;marker:none;visibility:visible;display:inline;overflow:visible;enable-background:accumulate;font-family:Sans;-inkscape-font-specification:Sans"
       d="m 192.2911,98.789107 c -2.5572,2.452273 -4.72707,4.696723 -6.79105,8.898393 -0.35197,0.7036 -0.0319,1.66405 0.67175,2.01588 0.70367,0.35184 1.66405,0.0316 2.01575,-0.67213 2.23434,-3.87123 3.52723,-5.44105 5.72855,-7.71089 2.37733,-2.451333 3.02104,-3.569977 7.25447,-5.774162 -3.67364,-0.59478 -6.11443,0.591326 -8.87947,3.242909 z"
       id="path3028"
       inkscape:connector-curvature="0"
       sodipodi:nodetypes="scscscs" />
    <path
       style="display:inline;fill:#80d2f9;stroke:none;stroke-width:1px;stroke-linecap:butt;stroke-linejoin:miter;stroke-opacity:1;fill-opacity:1"
       d="m 139.66832,255.86593 44.36358,25.05073 -6.99741,23.09146 -5.59792,-4.0585 -2.51907,7.69715 -4.3384,17.91338 -0.27989,10.07627 -6.29768,-7.97705 0.13995,22.25176 4.3384,13.57498 3.4987,11.47575 -22.39171,-22.11181 -5.03814,-8.3969 -0.69974,9.23659 -5.03813,-5.03814 -7.41726,-23.5113 -6.71751,15.6742 -0.69974,-17.77342 6.15772,-27.14996 -5.87783,2.23917 11.19586,-16.51389 6.43762,-15.25435 -9.23658,1.53943 z"
       id="path4104"
       inkscape:connector-curvature="0"
       sodipodi:nodetypes="cccccccccccccccccccccccc" />
    <path
       style="fill:#ffffff;fill-opacity:1;stroke:none"
       d="m 141.24458,256.60987 c 10.6066,-20.32932 11.13693,-20.15254 11.13693,-20.15254 -4.64149,-0.38146 -8.64352,-1.00887 -7.24785,-3.71231 l 10.42983,-16.44024 -9.54594,2.82843 c 3.39014,-9.43082 5.20201,-18.7244 -2.12132,-27.22361 l 24.57196,-6.71751 -8.30851,7.42462 c 17.52443,3.21147 26.23512,11.93152 36.59278,19.62221 l -15.37958,-4.77297 18.38478,34.1179 c -5.6512,2.30719 -8.94773,-2.11324 -11.31371,-9.19239 -0.30752,15.73055 -0.42502,31.4991 6.18719,48.61359 -3.60611,-4.14927 -8.33397,-0.7267 -10.25305,-16.26345 l -0.88389,15.73312 z"
       id="path3791"
       inkscape:connector-curvature="0"
       sodipodi:nodetypes="cccccccccccccccc" />
    <path
       style="fill:none;stroke:#000000;stroke-width:4;stroke-linecap:butt;stroke-linejoin:miter;stroke-miterlimit:100;stroke-opacity:1;stroke-dasharray:none"
       d="m 143.29166,191.97917 c 8.93879,7.20573 8.19719,17.82219 1.53119,27.22057 5.9767,-1.03002 10.92762,-4.42208 10.92762,-4.42208 -3.55224,9.43916 -9.06677,16.56766 -16.81297,23.90984 5.81699,-3.35162 11.38907,-6.27462 13.0625,-2.375 -3.40936,14.52107 -17.0857,22.3686 -27.3125,32.45833 4.42883,0.48134 10.6875,-2.375 10.6875,-2.375 -0.64598,14.54825 -14.23967,24.97678 -22.16667,37.20834 3.82639,-2.88804 7.65278,-7.33311 11.47917,-7.52084 -6.9267,17.11717 -5.06793,32.20692 -7.52083,48.29167 4.59067,-7.53257 6.21797,-16.33516 8.3125,-24.9375 0.58224,17.5709 7.94182,31.15514 14.64583,45.125 -2.43649,-10.10523 -2.93313,-17.56696 -1.27943,-21.72281 5.62642,14.57553 16.35326,22.89788 27.40443,32.41031 -9.81814,-20.79728 -7.67003,-33.90197 -7.52083,-48.29167 1.73006,4.49408 3.53011,9.16695 8.38453,9.14807 -6.28067,-15.33967 2.62182,-24.34413 4.67797,-37.25223 1.76412,1.74955 3.61121,3.33313 3.5625,8.70833 12.01738,-29.27869 4.93479,-26.63737 8.56426,-39.83922 0.34584,7.07993 6.40717,9.40285 10.0399,11.73505 -6.74215,-17.74713 -3.64597,-29.48195 -4.35416,-43.54166 2.53442,4.96721 5.84704,4.87613 9.10416,5.14583 -4.48089,-13.73005 -9.32397,-26.91683 -18.20833,-34.04167 2.97672,-0.058 7.03338,0.96394 11.875,2.77084 -13.1298,-13.0066 -24.30477,-15.88396 -32.45833,-17.8125 -0.37692,-3.09962 2.65507,-4.68417 5.54166,-6.33334 -8.77243,-0.13714 -16.37656,1.62421 -22.16667,6.33334 z"
       id="path4100"
       inkscape:connector-curvature="0"
       sodipodi:nodetypes="ccccccccccccccccccccccccccc" />
  </g>
</svg>
